<svg xmlns="http://www.w3.org/2000/svg" width="256" height="256" viewBox="0 0 100 100"><rect width="100" height="100" rx="20" fill="#7d6ee7"></rect><path fill="#fff" d="M25.84 77.09L25.84 77.09Q25.39 77.27 24.49 77.49Q23.59 77.72 22.51 77.72L22.51 77.72Q18.55 77.72 18.55 74.39L18.55 74.39L18.55 22.73Q19.00 22.55 19.94 22.32Q20.89 22.10 21.97 22.10L21.97 22.10Q25.84 22.10 25.84 25.43L25.84 25.43L25.84 77.09ZM72.37 74.93L49.42 51.17L49.42 77.18Q48.88 77.36 47.98 77.58Q47.08 77.81 46.00 77.81L46.00 77.81Q42.04 77.81 42.04 74.48L42.04 74.48L42.04 22.73Q42.49 22.55 43.43 22.32Q44.38 22.10 45.46 22.10L45.46 22.10Q49.42 22.10 49.42 25.43L49.42 25.43L49.42 47.84L74.17 22.19Q76.50 22.28 77.68 23.36Q78.84 24.44 78.84 25.88L78.84 25.88Q78.84 27.05 78.22 28.04Q77.59 29.03 76.42 30.20L76.42 30.20L56.98 49.28Q65.17 57.29 71.15 63.54Q77.14 69.80 81.46 73.67L81.46 73.67Q81.28 75.65 80.24 76.77Q79.21 77.90 77.59 77.90L77.59 77.90Q76.06 77.90 74.84 77.05Q73.63 76.19 72.37 74.93L72.37 74.93Z"></path></svg>